<svg xmlns="http://www.w3.org/2000/svg" viewBox="0 0 1880 920" width="1880" height="920">
<defs>
<radialGradient id="sky" cx="50%" cy="20%" r="80%"><stop offset="0" stop-color="#12392f"/><stop offset="0.45" stop-color="#07130F"/><stop offset="1" stop-color="#030806"/></radialGradient>
<linearGradient id="land" x1="0" y1="0" x2="1" y2="1"><stop offset="0" stop-color="#0E3B2E"/><stop offset="0.58" stop-color="#07130F"/><stop offset="1" stop-color="#020604"/></linearGradient>
<filter id="soft"><feGaussianBlur stdDeviation="18"/></filter>
</defs>
<rect width="1880" height="920" fill="url(#sky)"/>
<circle cx="1215.5" cy="160" r="210" fill="#D6A84F" opacity="0.202" filter="url(#soft)"/>
<circle cx="1480" cy="190" r="250" fill="#7BC7B5" opacity="0.055" filter="url(#soft)"/>
<path d="M0 610 C260 500 430 570 650 500 C870 430 1120 480 1320 435 C1530 388 1690 400 1880 330 L1880 920 L0 920 Z" fill="url(#land)"/>
<path d="M0 696 C290 610 450 640 720 604 C990 570 1170 620 1450 545 C1630 498 1765 515 1880 470 L1880 920 L0 920 Z" fill="#04100c" opacity="0.72"/>
<g opacity="0.96"><path d="M110 250 C 360 180, 560 330, 890 258 S 1280 204, 1740 278" fill="none" stroke="#7BC7B5" stroke-opacity="0.060" stroke-width="1.4"/>
<path d="M122 295 C 395 231, 605 368, 925 303 S 1302 249, 1740 323" fill="none" stroke="#7BC7B5" stroke-opacity="0.082" stroke-width="1.4"/>
<path d="M134 340 C 430 282, 650 406, 960 348 S 1324 294, 1740 368" fill="none" stroke="#7BC7B5" stroke-opacity="0.104" stroke-width="1.4"/>
<path d="M146 385 C 465 333, 695 444, 995 393 S 1346 339, 1740 413" fill="none" stroke="#7BC7B5" stroke-opacity="0.125" stroke-width="1.4"/>
<path d="M158 430 C 500 384, 740 482, 1030 438 S 1368 384, 1740 458" fill="none" stroke="#7BC7B5" stroke-opacity="0.147" stroke-width="1.4"/>
<path d="M170 475 C 535 435, 785 520, 1065 483 S 1390 429, 1740 503" fill="none" stroke="#7BC7B5" stroke-opacity="0.169" stroke-width="1.4"/>
<path d="M182 520 C 570 486, 830 558, 1100 528 S 1412 474, 1740 548" fill="none" stroke="#7BC7B5" stroke-opacity="0.191" stroke-width="1.4"/>
<path d="M194 565 C 605 537, 875 596, 1135 573 S 1434 519, 1740 593" fill="none" stroke="#7BC7B5" stroke-opacity="0.213" stroke-width="1.4"/>
<path d="M206 610 C 640 588, 920 634, 1170 618 S 1456 564, 1740 638" fill="none" stroke="#7BC7B5" stroke-opacity="0.235" stroke-width="1.4"/>
<path d="M218 655 C 675 639, 965 672, 1205 663 S 1478 609, 1740 683" fill="none" stroke="#7BC7B5" stroke-opacity="0.256" stroke-width="1.4"/>
<path d="M230 700 C 710 690, 1010 710, 1240 708 S 1500 654, 1740 728" fill="none" stroke="#7BC7B5" stroke-opacity="0.278" stroke-width="1.4"/></g>
<g opacity="0.180">
<path d="M420 620 L640 470 L990 438 L1245 520 L1110 704 L688 738 Z" fill="#7BC7B5" fill-opacity="0.045" stroke="#7BC7B5" stroke-opacity="0.48" stroke-width="2" stroke-dasharray="12 14"/>
<path d="M455 602 L685 510 L960 485 L1160 542" fill="none" stroke="#D6A84F" stroke-opacity="0.45" stroke-width="2"/>
<path d="M520 690 C690 610 880 620 1090 570" fill="none" stroke="#7BC7B5" stroke-opacity="0.28" stroke-width="2"/>
<circle cx="640" cy="470" r="7" fill="#D6A84F" fill-opacity="0.65"/><circle cx="990" cy="438" r="7" fill="#D6A84F" fill-opacity="0.55"/><circle cx="1245" cy="520" r="7" fill="#7BC7B5" fill-opacity="0.65"/>
</g>
<g><g opacity="0.88" transform="translate(560.0 390.0) skewX(-18)"><rect width="64" height="20" rx="2" fill="#12392f" stroke="#7BC7B5" stroke-opacity="0.28"/><path d="M8 0v20M24 0v20M40 0v20M56 0v20" stroke="#7BC7B5" stroke-opacity="0.13"/><path d="M0 10h64" stroke="#D6A84F" stroke-opacity="0.10"/></g>
<g opacity="0.88" transform="translate(644.0 393.0) skewX(-18)"><rect width="64" height="20" rx="2" fill="#12392f" stroke="#7BC7B5" stroke-opacity="0.28"/><path d="M8 0v20M24 0v20M40 0v20M56 0v20" stroke="#7BC7B5" stroke-opacity="0.13"/><path d="M0 10h64" stroke="#D6A84F" stroke-opacity="0.10"/></g>
<g opacity="0.88" transform="translate(728.0 396.0) skewX(-18)"><rect width="64" height="20" rx="2" fill="#12392f" stroke="#7BC7B5" stroke-opacity="0.28"/><path d="M8 0v20M24 0v20M40 0v20M56 0v20" stroke="#7BC7B5" stroke-opacity="0.13"/><path d="M0 10h64" stroke="#D6A84F" stroke-opacity="0.10"/></g>
<g opacity="0.88" transform="translate(812.0 399.0) skewX(-18)"><rect width="64" height="20" rx="2" fill="#12392f" stroke="#7BC7B5" stroke-opacity="0.28"/><path d="M8 0v20M24 0v20M40 0v20M56 0v20" stroke="#7BC7B5" stroke-opacity="0.13"/><path d="M0 10h64" stroke="#D6A84F" stroke-opacity="0.10"/></g>
<g opacity="0.88" transform="translate(896.0 402.0) skewX(-18)"><rect width="64" height="20" rx="2" fill="#12392f" stroke="#7BC7B5" stroke-opacity="0.28"/><path d="M8 0v20M24 0v20M40 0v20M56 0v20" stroke="#7BC7B5" stroke-opacity="0.13"/><path d="M0 10h64" stroke="#D6A84F" stroke-opacity="0.10"/></g>
<g opacity="0.88" transform="translate(980.0 405.0) skewX(-18)"><rect width="64" height="20" rx="2" fill="#12392f" stroke="#7BC7B5" stroke-opacity="0.28"/><path d="M8 0v20M24 0v20M40 0v20M56 0v20" stroke="#7BC7B5" stroke-opacity="0.13"/><path d="M0 10h64" stroke="#D6A84F" stroke-opacity="0.10"/></g>
<g opacity="0.88" transform="translate(1064.0 408.0) skewX(-18)"><rect width="64" height="20" rx="2" fill="#12392f" stroke="#7BC7B5" stroke-opacity="0.28"/><path d="M8 0v20M24 0v20M40 0v20M56 0v20" stroke="#7BC7B5" stroke-opacity="0.13"/><path d="M0 10h64" stroke="#D6A84F" stroke-opacity="0.10"/></g>
<g opacity="0.88" transform="translate(1148.0 411.0) skewX(-18)"><rect width="64" height="20" rx="2" fill="#12392f" stroke="#7BC7B5" stroke-opacity="0.28"/><path d="M8 0v20M24 0v20M40 0v20M56 0v20" stroke="#7BC7B5" stroke-opacity="0.13"/><path d="M0 10h64" stroke="#D6A84F" stroke-opacity="0.10"/></g>
<g opacity="0.88" transform="translate(542.0 420.0) skewX(-18)"><rect width="64" height="20" rx="2" fill="#12392f" stroke="#7BC7B5" stroke-opacity="0.28"/><path d="M8 0v20M24 0v20M40 0v20M56 0v20" stroke="#7BC7B5" stroke-opacity="0.13"/><path d="M0 10h64" stroke="#D6A84F" stroke-opacity="0.10"/></g>
<g opacity="0.88" transform="translate(626.0 423.0) skewX(-18)"><rect width="64" height="20" rx="2" fill="#12392f" stroke="#7BC7B5" stroke-opacity="0.28"/><path d="M8 0v20M24 0v20M40 0v20M56 0v20" stroke="#7BC7B5" stroke-opacity="0.13"/><path d="M0 10h64" stroke="#D6A84F" stroke-opacity="0.10"/></g>
<g opacity="0.88" transform="translate(710.0 426.0) skewX(-18)"><rect width="64" height="20" rx="2" fill="#12392f" stroke="#7BC7B5" stroke-opacity="0.28"/><path d="M8 0v20M24 0v20M40 0v20M56 0v20" stroke="#7BC7B5" stroke-opacity="0.13"/><path d="M0 10h64" stroke="#D6A84F" stroke-opacity="0.10"/></g>
<g opacity="0.88" transform="translate(794.0 429.0) skewX(-18)"><rect width="64" height="20" rx="2" fill="#12392f" stroke="#7BC7B5" stroke-opacity="0.28"/><path d="M8 0v20M24 0v20M40 0v20M56 0v20" stroke="#7BC7B5" stroke-opacity="0.13"/><path d="M0 10h64" stroke="#D6A84F" stroke-opacity="0.10"/></g>
<g opacity="0.88" transform="translate(878.0 432.0) skewX(-18)"><rect width="64" height="20" rx="2" fill="#12392f" stroke="#7BC7B5" stroke-opacity="0.28"/><path d="M8 0v20M24 0v20M40 0v20M56 0v20" stroke="#7BC7B5" stroke-opacity="0.13"/><path d="M0 10h64" stroke="#D6A84F" stroke-opacity="0.10"/></g>
<g opacity="0.88" transform="translate(962.0 435.0) skewX(-18)"><rect width="64" height="20" rx="2" fill="#12392f" stroke="#7BC7B5" stroke-opacity="0.28"/><path d="M8 0v20M24 0v20M40 0v20M56 0v20" stroke="#7BC7B5" stroke-opacity="0.13"/><path d="M0 10h64" stroke="#D6A84F" stroke-opacity="0.10"/></g>
<g opacity="0.88" transform="translate(1046.0 438.0) skewX(-18)"><rect width="64" height="20" rx="2" fill="#12392f" stroke="#7BC7B5" stroke-opacity="0.28"/><path d="M8 0v20M24 0v20M40 0v20M56 0v20" stroke="#7BC7B5" stroke-opacity="0.13"/><path d="M0 10h64" stroke="#D6A84F" stroke-opacity="0.10"/></g>
<g opacity="0.88" transform="translate(1130.0 441.0) skewX(-18)"><rect width="64" height="20" rx="2" fill="#12392f" stroke="#7BC7B5" stroke-opacity="0.28"/><path d="M8 0v20M24 0v20M40 0v20M56 0v20" stroke="#7BC7B5" stroke-opacity="0.13"/><path d="M0 10h64" stroke="#D6A84F" stroke-opacity="0.10"/></g>
<g opacity="0.88" transform="translate(524.0 450.0) skewX(-18)"><rect width="64" height="20" rx="2" fill="#12392f" stroke="#7BC7B5" stroke-opacity="0.28"/><path d="M8 0v20M24 0v20M40 0v20M56 0v20" stroke="#7BC7B5" stroke-opacity="0.13"/><path d="M0 10h64" stroke="#D6A84F" stroke-opacity="0.10"/></g>
<g opacity="0.88" transform="translate(608.0 453.0) skewX(-18)"><rect width="64" height="20" rx="2" fill="#12392f" stroke="#7BC7B5" stroke-opacity="0.28"/><path d="M8 0v20M24 0v20M40 0v20M56 0v20" stroke="#7BC7B5" stroke-opacity="0.13"/><path d="M0 10h64" stroke="#D6A84F" stroke-opacity="0.10"/></g>
<g opacity="0.88" transform="translate(692.0 456.0) skewX(-18)"><rect width="64" height="20" rx="2" fill="#12392f" stroke="#7BC7B5" stroke-opacity="0.28"/><path d="M8 0v20M24 0v20M40 0v20M56 0v20" stroke="#7BC7B5" stroke-opacity="0.13"/><path d="M0 10h64" stroke="#D6A84F" stroke-opacity="0.10"/></g>
<g opacity="0.88" transform="translate(776.0 459.0) skewX(-18)"><rect width="64" height="20" rx="2" fill="#12392f" stroke="#7BC7B5" stroke-opacity="0.28"/><path d="M8 0v20M24 0v20M40 0v20M56 0v20" stroke="#7BC7B5" stroke-opacity="0.13"/><path d="M0 10h64" stroke="#D6A84F" stroke-opacity="0.10"/></g>
<g opacity="0.88" transform="translate(860.0 462.0) skewX(-18)"><rect width="64" height="20" rx="2" fill="#12392f" stroke="#7BC7B5" stroke-opacity="0.28"/><path d="M8 0v20M24 0v20M40 0v20M56 0v20" stroke="#7BC7B5" stroke-opacity="0.13"/><path d="M0 10h64" stroke="#D6A84F" stroke-opacity="0.10"/></g>
<g opacity="0.88" transform="translate(944.0 465.0) skewX(-18)"><rect width="64" height="20" rx="2" fill="#12392f" stroke="#7BC7B5" stroke-opacity="0.28"/><path d="M8 0v20M24 0v20M40 0v20M56 0v20" stroke="#7BC7B5" stroke-opacity="0.13"/><path d="M0 10h64" stroke="#D6A84F" stroke-opacity="0.10"/></g>
<g opacity="0.88" transform="translate(1028.0 468.0) skewX(-18)"><rect width="64" height="20" rx="2" fill="#12392f" stroke="#7BC7B5" stroke-opacity="0.28"/><path d="M8 0v20M24 0v20M40 0v20M56 0v20" stroke="#7BC7B5" stroke-opacity="0.13"/><path d="M0 10h64" stroke="#D6A84F" stroke-opacity="0.10"/></g>
<g opacity="0.88" transform="translate(1112.0 471.0) skewX(-18)"><rect width="64" height="20" rx="2" fill="#12392f" stroke="#7BC7B5" stroke-opacity="0.28"/><path d="M8 0v20M24 0v20M40 0v20M56 0v20" stroke="#7BC7B5" stroke-opacity="0.13"/><path d="M0 10h64" stroke="#D6A84F" stroke-opacity="0.10"/></g>
<g opacity="0.88" transform="translate(506.0 480.0) skewX(-18)"><rect width="64" height="20" rx="2" fill="#12392f" stroke="#7BC7B5" stroke-opacity="0.28"/><path d="M8 0v20M24 0v20M40 0v20M56 0v20" stroke="#7BC7B5" stroke-opacity="0.13"/><path d="M0 10h64" stroke="#D6A84F" stroke-opacity="0.10"/></g>
<g opacity="0.88" transform="translate(590.0 483.0) skewX(-18)"><rect width="64" height="20" rx="2" fill="#12392f" stroke="#7BC7B5" stroke-opacity="0.28"/><path d="M8 0v20M24 0v20M40 0v20M56 0v20" stroke="#7BC7B5" stroke-opacity="0.13"/><path d="M0 10h64" stroke="#D6A84F" stroke-opacity="0.10"/></g>
<g opacity="0.88" transform="translate(674.0 486.0) skewX(-18)"><rect width="64" height="20" rx="2" fill="#12392f" stroke="#7BC7B5" stroke-opacity="0.28"/><path d="M8 0v20M24 0v20M40 0v20M56 0v20" stroke="#7BC7B5" stroke-opacity="0.13"/><path d="M0 10h64" stroke="#D6A84F" stroke-opacity="0.10"/></g>
<g opacity="0.88" transform="translate(758.0 489.0) skewX(-18)"><rect width="64" height="20" rx="2" fill="#12392f" stroke="#7BC7B5" stroke-opacity="0.28"/><path d="M8 0v20M24 0v20M40 0v20M56 0v20" stroke="#7BC7B5" stroke-opacity="0.13"/><path d="M0 10h64" stroke="#D6A84F" stroke-opacity="0.10"/></g>
<g opacity="0.88" transform="translate(842.0 492.0) skewX(-18)"><rect width="64" height="20" rx="2" fill="#12392f" stroke="#7BC7B5" stroke-opacity="0.28"/><path d="M8 0v20M24 0v20M40 0v20M56 0v20" stroke="#7BC7B5" stroke-opacity="0.13"/><path d="M0 10h64" stroke="#D6A84F" stroke-opacity="0.10"/></g>
<g opacity="0.88" transform="translate(926.0 495.0) skewX(-18)"><rect width="64" height="20" rx="2" fill="#12392f" stroke="#7BC7B5" stroke-opacity="0.28"/><path d="M8 0v20M24 0v20M40 0v20M56 0v20" stroke="#7BC7B5" stroke-opacity="0.13"/><path d="M0 10h64" stroke="#D6A84F" stroke-opacity="0.10"/></g>
<g opacity="0.88" transform="translate(1010.0 498.0) skewX(-18)"><rect width="64" height="20" rx="2" fill="#12392f" stroke="#7BC7B5" stroke-opacity="0.28"/><path d="M8 0v20M24 0v20M40 0v20M56 0v20" stroke="#7BC7B5" stroke-opacity="0.13"/><path d="M0 10h64" stroke="#D6A84F" stroke-opacity="0.10"/></g>
<g opacity="0.88" transform="translate(1094.0 501.0) skewX(-18)"><rect width="64" height="20" rx="2" fill="#12392f" stroke="#7BC7B5" stroke-opacity="0.28"/><path d="M8 0v20M24 0v20M40 0v20M56 0v20" stroke="#7BC7B5" stroke-opacity="0.13"/><path d="M0 10h64" stroke="#D6A84F" stroke-opacity="0.10"/></g>
<g opacity="0.88" transform="translate(488.0 510.0) skewX(-18)"><rect width="64" height="20" rx="2" fill="#12392f" stroke="#7BC7B5" stroke-opacity="0.28"/><path d="M8 0v20M24 0v20M40 0v20M56 0v20" stroke="#7BC7B5" stroke-opacity="0.13"/><path d="M0 10h64" stroke="#D6A84F" stroke-opacity="0.10"/></g>
<g opacity="0.88" transform="translate(572.0 513.0) skewX(-18)"><rect width="64" height="20" rx="2" fill="#12392f" stroke="#7BC7B5" stroke-opacity="0.28"/><path d="M8 0v20M24 0v20M40 0v20M56 0v20" stroke="#7BC7B5" stroke-opacity="0.13"/><path d="M0 10h64" stroke="#D6A84F" stroke-opacity="0.10"/></g>
<g opacity="0.88" transform="translate(656.0 516.0) skewX(-18)"><rect width="64" height="20" rx="2" fill="#12392f" stroke="#7BC7B5" stroke-opacity="0.28"/><path d="M8 0v20M24 0v20M40 0v20M56 0v20" stroke="#7BC7B5" stroke-opacity="0.13"/><path d="M0 10h64" stroke="#D6A84F" stroke-opacity="0.10"/></g>
<g opacity="0.88" transform="translate(740.0 519.0) skewX(-18)"><rect width="64" height="20" rx="2" fill="#12392f" stroke="#7BC7B5" stroke-opacity="0.28"/><path d="M8 0v20M24 0v20M40 0v20M56 0v20" stroke="#7BC7B5" stroke-opacity="0.13"/><path d="M0 10h64" stroke="#D6A84F" stroke-opacity="0.10"/></g>
<g opacity="0.88" transform="translate(824.0 522.0) skewX(-18)"><rect width="64" height="20" rx="2" fill="#12392f" stroke="#7BC7B5" stroke-opacity="0.28"/><path d="M8 0v20M24 0v20M40 0v20M56 0v20" stroke="#7BC7B5" stroke-opacity="0.13"/><path d="M0 10h64" stroke="#D6A84F" stroke-opacity="0.10"/></g>
<g opacity="0.88" transform="translate(908.0 525.0) skewX(-18)"><rect width="64" height="20" rx="2" fill="#12392f" stroke="#7BC7B5" stroke-opacity="0.28"/><path d="M8 0v20M24 0v20M40 0v20M56 0v20" stroke="#7BC7B5" stroke-opacity="0.13"/><path d="M0 10h64" stroke="#D6A84F" stroke-opacity="0.10"/></g>
<g opacity="0.88" transform="translate(992.0 528.0) skewX(-18)"><rect width="64" height="20" rx="2" fill="#12392f" stroke="#7BC7B5" stroke-opacity="0.28"/><path d="M8 0v20M24 0v20M40 0v20M56 0v20" stroke="#7BC7B5" stroke-opacity="0.13"/><path d="M0 10h64" stroke="#D6A84F" stroke-opacity="0.10"/></g>
<g opacity="0.88" transform="translate(1076.0 531.0) skewX(-18)"><rect width="64" height="20" rx="2" fill="#12392f" stroke="#7BC7B5" stroke-opacity="0.28"/><path d="M8 0v20M24 0v20M40 0v20M56 0v20" stroke="#7BC7B5" stroke-opacity="0.13"/><path d="M0 10h64" stroke="#D6A84F" stroke-opacity="0.10"/></g>
<g opacity="0.88" transform="translate(470.0 540.0) skewX(-18)"><rect width="64" height="20" rx="2" fill="#12392f" stroke="#7BC7B5" stroke-opacity="0.28"/><path d="M8 0v20M24 0v20M40 0v20M56 0v20" stroke="#7BC7B5" stroke-opacity="0.13"/><path d="M0 10h64" stroke="#D6A84F" stroke-opacity="0.10"/></g>
<g opacity="0.88" transform="translate(554.0 543.0) skewX(-18)"><rect width="64" height="20" rx="2" fill="#12392f" stroke="#7BC7B5" stroke-opacity="0.28"/><path d="M8 0v20M24 0v20M40 0v20M56 0v20" stroke="#7BC7B5" stroke-opacity="0.13"/><path d="M0 10h64" stroke="#D6A84F" stroke-opacity="0.10"/></g>
<g opacity="0.88" transform="translate(638.0 546.0) skewX(-18)"><rect width="64" height="20" rx="2" fill="#12392f" stroke="#7BC7B5" stroke-opacity="0.28"/><path d="M8 0v20M24 0v20M40 0v20M56 0v20" stroke="#7BC7B5" stroke-opacity="0.13"/><path d="M0 10h64" stroke="#D6A84F" stroke-opacity="0.10"/></g>
<g opacity="0.88" transform="translate(722.0 549.0) skewX(-18)"><rect width="64" height="20" rx="2" fill="#12392f" stroke="#7BC7B5" stroke-opacity="0.28"/><path d="M8 0v20M24 0v20M40 0v20M56 0v20" stroke="#7BC7B5" stroke-opacity="0.13"/><path d="M0 10h64" stroke="#D6A84F" stroke-opacity="0.10"/></g>
<g opacity="0.88" transform="translate(806.0 552.0) skewX(-18)"><rect width="64" height="20" rx="2" fill="#12392f" stroke="#7BC7B5" stroke-opacity="0.28"/><path d="M8 0v20M24 0v20M40 0v20M56 0v20" stroke="#7BC7B5" stroke-opacity="0.13"/><path d="M0 10h64" stroke="#D6A84F" stroke-opacity="0.10"/></g>
<g opacity="0.88" transform="translate(890.0 555.0) skewX(-18)"><rect width="64" height="20" rx="2" fill="#12392f" stroke="#7BC7B5" stroke-opacity="0.28"/><path d="M8 0v20M24 0v20M40 0v20M56 0v20" stroke="#7BC7B5" stroke-opacity="0.13"/><path d="M0 10h64" stroke="#D6A84F" stroke-opacity="0.10"/></g>
<g opacity="0.88" transform="translate(974.0 558.0) skewX(-18)"><rect width="64" height="20" rx="2" fill="#12392f" stroke="#7BC7B5" stroke-opacity="0.28"/><path d="M8 0v20M24 0v20M40 0v20M56 0v20" stroke="#7BC7B5" stroke-opacity="0.13"/><path d="M0 10h64" stroke="#D6A84F" stroke-opacity="0.10"/></g>
<g opacity="0.88" transform="translate(1058.0 561.0) skewX(-18)"><rect width="64" height="20" rx="2" fill="#12392f" stroke="#7BC7B5" stroke-opacity="0.28"/><path d="M8 0v20M24 0v20M40 0v20M56 0v20" stroke="#7BC7B5" stroke-opacity="0.13"/><path d="M0 10h64" stroke="#D6A84F" stroke-opacity="0.10"/></g>
<g opacity="0.88" transform="translate(452.0 570.0) skewX(-18)"><rect width="64" height="20" rx="2" fill="#12392f" stroke="#7BC7B5" stroke-opacity="0.28"/><path d="M8 0v20M24 0v20M40 0v20M56 0v20" stroke="#7BC7B5" stroke-opacity="0.13"/><path d="M0 10h64" stroke="#D6A84F" stroke-opacity="0.10"/></g>
<g opacity="0.88" transform="translate(536.0 573.0) skewX(-18)"><rect width="64" height="20" rx="2" fill="#12392f" stroke="#7BC7B5" stroke-opacity="0.28"/><path d="M8 0v20M24 0v20M40 0v20M56 0v20" stroke="#7BC7B5" stroke-opacity="0.13"/><path d="M0 10h64" stroke="#D6A84F" stroke-opacity="0.10"/></g>
<g opacity="0.88" transform="translate(620.0 576.0) skewX(-18)"><rect width="64" height="20" rx="2" fill="#12392f" stroke="#7BC7B5" stroke-opacity="0.28"/><path d="M8 0v20M24 0v20M40 0v20M56 0v20" stroke="#7BC7B5" stroke-opacity="0.13"/><path d="M0 10h64" stroke="#D6A84F" stroke-opacity="0.10"/></g>
<g opacity="0.88" transform="translate(704.0 579.0) skewX(-18)"><rect width="64" height="20" rx="2" fill="#12392f" stroke="#7BC7B5" stroke-opacity="0.28"/><path d="M8 0v20M24 0v20M40 0v20M56 0v20" stroke="#7BC7B5" stroke-opacity="0.13"/><path d="M0 10h64" stroke="#D6A84F" stroke-opacity="0.10"/></g>
<g opacity="0.88" transform="translate(788.0 582.0) skewX(-18)"><rect width="64" height="20" rx="2" fill="#12392f" stroke="#7BC7B5" stroke-opacity="0.28"/><path d="M8 0v20M24 0v20M40 0v20M56 0v20" stroke="#7BC7B5" stroke-opacity="0.13"/><path d="M0 10h64" stroke="#D6A84F" stroke-opacity="0.10"/></g>
<g opacity="0.88" transform="translate(872.0 585.0) skewX(-18)"><rect width="64" height="20" rx="2" fill="#12392f" stroke="#7BC7B5" stroke-opacity="0.28"/><path d="M8 0v20M24 0v20M40 0v20M56 0v20" stroke="#7BC7B5" stroke-opacity="0.13"/><path d="M0 10h64" stroke="#D6A84F" stroke-opacity="0.10"/></g>
<g opacity="0.88" transform="translate(956.0 588.0) skewX(-18)"><rect width="64" height="20" rx="2" fill="#12392f" stroke="#7BC7B5" stroke-opacity="0.28"/><path d="M8 0v20M24 0v20M40 0v20M56 0v20" stroke="#7BC7B5" stroke-opacity="0.13"/><path d="M0 10h64" stroke="#D6A84F" stroke-opacity="0.10"/></g>
<g opacity="0.88" transform="translate(1040.0 591.0) skewX(-18)"><rect width="64" height="20" rx="2" fill="#12392f" stroke="#7BC7B5" stroke-opacity="0.28"/><path d="M8 0v20M24 0v20M40 0v20M56 0v20" stroke="#7BC7B5" stroke-opacity="0.13"/><path d="M0 10h64" stroke="#D6A84F" stroke-opacity="0.10"/></g></g>
<g opacity="0.396"><path d="M500 680 C760 620 980 675 1206 608" fill="none" stroke="#D6A84F" stroke-opacity="0.35" stroke-width="12" stroke-linecap="round"/><path d="M610 570 C800 540 970 560 1140 530" fill="none" stroke="#F7F3EA" stroke-opacity="0.10" stroke-width="8" stroke-linecap="round"/></g>
<g opacity="0.9" transform="translate(1120 535)"><rect width="70" height="34" rx="4" fill="#0b241d" stroke="#7BC7B5" stroke-opacity="0.38"/><rect x="8" y="7" width="54" height="20" rx="2" fill="#12392f"/><path d="M18 7v20M34 7v20M50 7v20" stroke="#7BC7B5" stroke-opacity="0.18"/><circle cx="58" cy="17" r="3" fill="#D6A84F" fill-opacity="0.55"/></g>
<g opacity="0.9" transform="translate(1202 545)"><rect width="70" height="34" rx="4" fill="#0b241d" stroke="#7BC7B5" stroke-opacity="0.38"/><rect x="8" y="7" width="54" height="20" rx="2" fill="#12392f"/><path d="M18 7v20M34 7v20M50 7v20" stroke="#7BC7B5" stroke-opacity="0.18"/><circle cx="58" cy="17" r="3" fill="#D6A84F" fill-opacity="0.55"/></g>
<g opacity="0.9" transform="translate(1284 535)"><rect width="70" height="34" rx="4" fill="#0b241d" stroke="#7BC7B5" stroke-opacity="0.38"/><rect x="8" y="7" width="54" height="20" rx="2" fill="#12392f"/><path d="M18 7v20M34 7v20M50 7v20" stroke="#7BC7B5" stroke-opacity="0.18"/><circle cx="58" cy="17" r="3" fill="#D6A84F" fill-opacity="0.55"/></g>
<g opacity="0.9" transform="translate(1366 545)"><rect width="70" height="34" rx="4" fill="#0b241d" stroke="#7BC7B5" stroke-opacity="0.38"/><rect x="8" y="7" width="54" height="20" rx="2" fill="#12392f"/><path d="M18 7v20M34 7v20M50 7v20" stroke="#7BC7B5" stroke-opacity="0.18"/><circle cx="58" cy="17" r="3" fill="#D6A84F" fill-opacity="0.55"/></g>
<g opacity="0.9" transform="translate(1448 535)"><rect width="70" height="34" rx="4" fill="#0b241d" stroke="#7BC7B5" stroke-opacity="0.38"/><rect x="8" y="7" width="54" height="20" rx="2" fill="#12392f"/><path d="M18 7v20M34 7v20M50 7v20" stroke="#7BC7B5" stroke-opacity="0.18"/><circle cx="58" cy="17" r="3" fill="#D6A84F" fill-opacity="0.55"/></g>
<g opacity="0.30666666666666664"><path d="M710 500 C870 465 1010 485 1148 545" fill="none" stroke="#D6A84F" stroke-width="3" stroke-linecap="round" stroke-opacity="0.62" stroke-dasharray="14 18"/><circle cx="710" cy="500" r="8" fill="#D6A84F" fill-opacity="0.75"/><circle cx="1148" cy="545" r="9" fill="#7BC7B5" fill-opacity="0.72"/><circle cx="1638" cy="360" r="11" fill="#7BC7B5" fill-opacity="0.82"/></g>
<g opacity="0.2866666666666666">
<path d="M1578 648V372" stroke="#7BC7B5" stroke-opacity="0.42" stroke-width="3"/>
<path d="M1518 648V410M1638 648V356M1698 648V415" stroke="#7BC7B5" stroke-opacity="0.28" stroke-width="2"/>
<path d="M1485 432h248M1516 370h152M1540 476h170" stroke="#7BC7B5" stroke-opacity="0.30" stroke-width="2"/>
<path d="M1468 648h290" stroke="#D6A84F" stroke-opacity="0.35" stroke-width="3"/>
<rect x="1458" y="670" width="220" height="58" rx="10" fill="#0b241d" stroke="#7BC7B5" stroke-opacity="0.28"/>
<path d="M1500 699h135M1500 715h86" stroke="#7BC7B5" stroke-opacity="0.22" stroke-width="3"/>
</g>
<g opacity="0.32"><path d="M80 820h1720" stroke="#F7F3EA" stroke-opacity="0.10"/><path d="M120 120h1640M120 220h1640M120 320h1640" stroke="#F7F3EA" stroke-opacity="0.035"/><path d="M220 90v760M520 90v760M820 90v760M1120 90v760M1420 90v760M1720 90v760" stroke="#F7F3EA" stroke-opacity="0.026"/></g>
<rect width="1880" height="920" fill="none" stroke="#F7F3EA" stroke-opacity="0.08" stroke-width="2"/>
</svg>